<svg xmlns="http://www.w3.org/2000/svg" width="24" height="24" viewBox="0 0 24 24" fill="none" stroke="currentColor" stroke-width="2" stroke-linecap="round" stroke-linejoin="round" class="lucide lucide-sprout h-5 w-5 text-white" data-lov-id="src/components/Header.tsx:28:12" data-lov-name="Sprout" data-component-path="src/components/Header.tsx" data-component-line="28" data-component-file="Header.tsx" data-component-name="Sprout" data-component-content="%7B%22className%22%3A%22h-5%20w-5%20text-white%22%7D"><path d="M7 20h10"></path><path d="M10 20c5.5-2.5.8-6.4 3-10"></path><path d="M9.5 9.4c1.1.8 1.8 2.2 2.3 3.7-2 .4-3.5.4-4.8-.3-1.2-.6-2.3-1.9-3-4.2 2.8-.5 4.4 0 5.5.8z"></path><path d="M14.1 6a7 7 0 0 0-1.1 4c1.9-.1 3.3-.6 4.3-1.4 1-1 1.6-2.3 1.7-4.6-2.7.1-4 1-4.9 2z"></path></svg>